<mxfile host="app.diagrams.net" modified="2024-06-14T15:04:04.087Z" agent="Mozilla/5.0 (Windows NT 10.0; Win64; x64) AppleWebKit/537.36 (KHTML, like Gecko) Chrome/125.0.0.0 Safari/537.36" etag="lcEK5SVeYSnimf42eO0E" version="24.5.4" type="github">
  <diagram id="C5RBs43oDa-KdzZeNtuy" name="Page-1">
    <mxGraphModel dx="1755" dy="1669" grid="1" gridSize="10" guides="1" tooltips="1" connect="1" arrows="1" fold="1" page="1" pageScale="1" pageWidth="827" pageHeight="1169" math="0" shadow="0">
      <root>
        <mxCell id="WIyWlLk6GJQsqaUBKTNV-0" />
        <mxCell id="WIyWlLk6GJQsqaUBKTNV-1" parent="WIyWlLk6GJQsqaUBKTNV-0" />
        <mxCell id="AT910s7sBj3iHrCnCsIg-35" style="edgeStyle=orthogonalEdgeStyle;rounded=0;orthogonalLoop=1;jettySize=auto;html=1;exitX=0.5;exitY=1;exitDx=0;exitDy=0;entryX=0.5;entryY=0;entryDx=0;entryDy=0;" edge="1" parent="WIyWlLk6GJQsqaUBKTNV-1" source="WIyWlLk6GJQsqaUBKTNV-3" target="AT910s7sBj3iHrCnCsIg-6">
          <mxGeometry relative="1" as="geometry" />
        </mxCell>
        <mxCell id="WIyWlLk6GJQsqaUBKTNV-3" value="M = next material name in Material_list" style="rounded=0;whiteSpace=wrap;html=1;fontSize=12;glass=0;strokeWidth=1;shadow=0;" parent="WIyWlLk6GJQsqaUBKTNV-1" vertex="1">
          <mxGeometry x="140" y="47.5" width="160" height="45" as="geometry" />
        </mxCell>
        <mxCell id="WIyWlLk6GJQsqaUBKTNV-5" value="Yes" style="edgeStyle=orthogonalEdgeStyle;rounded=0;html=1;jettySize=auto;orthogonalLoop=1;fontSize=11;endArrow=block;endFill=0;endSize=8;strokeWidth=1;shadow=0;labelBackgroundColor=none;" parent="WIyWlLk6GJQsqaUBKTNV-1" source="WIyWlLk6GJQsqaUBKTNV-6" target="WIyWlLk6GJQsqaUBKTNV-7" edge="1">
          <mxGeometry y="10" relative="1" as="geometry">
            <mxPoint as="offset" />
          </mxGeometry>
        </mxCell>
        <mxCell id="AT910s7sBj3iHrCnCsIg-39" value="No" style="edgeStyle=orthogonalEdgeStyle;rounded=0;orthogonalLoop=1;jettySize=auto;html=1;labelPosition=right;verticalLabelPosition=middle;align=left;verticalAlign=middle;spacingLeft=5;spacingBottom=4;" edge="1" parent="WIyWlLk6GJQsqaUBKTNV-1" source="WIyWlLk6GJQsqaUBKTNV-6" target="AT910s7sBj3iHrCnCsIg-38">
          <mxGeometry relative="1" as="geometry" />
        </mxCell>
        <mxCell id="WIyWlLk6GJQsqaUBKTNV-6" value="Existing entry in PubChem?" style="rhombus;whiteSpace=wrap;html=1;shadow=0;fontFamily=Helvetica;fontSize=12;align=center;strokeWidth=1;spacing=10;spacingTop=10;spacingBottom=10;spacingRight=10;spacingLeft=10;" parent="WIyWlLk6GJQsqaUBKTNV-1" vertex="1">
          <mxGeometry x="130" y="170" width="180" height="80" as="geometry" />
        </mxCell>
        <mxCell id="AT910s7sBj3iHrCnCsIg-45" style="edgeStyle=orthogonalEdgeStyle;rounded=0;orthogonalLoop=1;jettySize=auto;html=1;exitX=0.5;exitY=0;exitDx=0;exitDy=0;entryX=1;entryY=0.5;entryDx=0;entryDy=0;" edge="1" parent="WIyWlLk6GJQsqaUBKTNV-1" source="WIyWlLk6GJQsqaUBKTNV-7" target="WIyWlLk6GJQsqaUBKTNV-3">
          <mxGeometry relative="1" as="geometry" />
        </mxCell>
        <mxCell id="WIyWlLk6GJQsqaUBKTNV-7" value="&lt;p style=&quot;text-align: left; line-height: 0px;&quot;&gt;Add entry to dictionary.&lt;/p&gt;&lt;p style=&quot;text-align: left; line-height: 0px;&quot;&gt;&lt;b&gt;Key&lt;/b&gt;: M&lt;/p&gt;&lt;p style=&quot;text-align: left; line-height: 0px;&quot;&gt;&lt;b&gt;Value&lt;/b&gt;: PubChem CID&lt;/p&gt;" style="rounded=0;whiteSpace=wrap;html=1;fontSize=12;glass=0;strokeWidth=1;shadow=0;align=center;" parent="WIyWlLk6GJQsqaUBKTNV-1" vertex="1">
          <mxGeometry x="350" y="92.5" width="150" height="60" as="geometry" />
        </mxCell>
        <mxCell id="AT910s7sBj3iHrCnCsIg-55" style="edgeStyle=orthogonalEdgeStyle;rounded=0;orthogonalLoop=1;jettySize=auto;html=1;exitX=0.5;exitY=1;exitDx=0;exitDy=0;entryX=0.5;entryY=0;entryDx=0;entryDy=0;" edge="1" parent="WIyWlLk6GJQsqaUBKTNV-1" source="AT910s7sBj3iHrCnCsIg-2" target="AT910s7sBj3iHrCnCsIg-53">
          <mxGeometry relative="1" as="geometry" />
        </mxCell>
        <mxCell id="AT910s7sBj3iHrCnCsIg-2" value="BEGIN" style="ellipse;whiteSpace=wrap;html=1;" vertex="1" parent="WIyWlLk6GJQsqaUBKTNV-1">
          <mxGeometry x="160" y="-180" width="120" height="40" as="geometry" />
        </mxCell>
        <mxCell id="AT910s7sBj3iHrCnCsIg-36" style="edgeStyle=orthogonalEdgeStyle;rounded=0;orthogonalLoop=1;jettySize=auto;html=1;exitX=0.5;exitY=1;exitDx=0;exitDy=0;entryX=0.5;entryY=0;entryDx=0;entryDy=0;" edge="1" parent="WIyWlLk6GJQsqaUBKTNV-1" source="AT910s7sBj3iHrCnCsIg-6" target="WIyWlLk6GJQsqaUBKTNV-6">
          <mxGeometry relative="1" as="geometry" />
        </mxCell>
        <mxCell id="AT910s7sBj3iHrCnCsIg-6" value="Paper_list = papers for cells in which M was used." style="rounded=0;whiteSpace=wrap;html=1;" vertex="1" parent="WIyWlLk6GJQsqaUBKTNV-1">
          <mxGeometry x="140" y="107.5" width="160" height="45" as="geometry" />
        </mxCell>
        <mxCell id="AT910s7sBj3iHrCnCsIg-25" value="" style="edgeStyle=orthogonalEdgeStyle;rounded=0;orthogonalLoop=1;jettySize=auto;html=1;" edge="1" parent="WIyWlLk6GJQsqaUBKTNV-1" source="AT910s7sBj3iHrCnCsIg-8" target="AT910s7sBj3iHrCnCsIg-20">
          <mxGeometry relative="1" as="geometry" />
        </mxCell>
        <mxCell id="AT910s7sBj3iHrCnCsIg-8" value="P = next paper on the list of papers" style="rounded=0;whiteSpace=wrap;html=1;" vertex="1" parent="WIyWlLk6GJQsqaUBKTNV-1">
          <mxGeometry x="135" y="390" width="170" height="50" as="geometry" />
        </mxCell>
        <mxCell id="AT910s7sBj3iHrCnCsIg-61" style="edgeStyle=orthogonalEdgeStyle;rounded=0;orthogonalLoop=1;jettySize=auto;html=1;exitX=0.5;exitY=0;exitDx=0;exitDy=0;entryX=0;entryY=0.5;entryDx=0;entryDy=0;" edge="1" parent="WIyWlLk6GJQsqaUBKTNV-1" source="AT910s7sBj3iHrCnCsIg-10" target="WIyWlLk6GJQsqaUBKTNV-6">
          <mxGeometry relative="1" as="geometry" />
        </mxCell>
        <mxCell id="AT910s7sBj3iHrCnCsIg-10" value="M_llm = LLM search result" style="rounded=0;whiteSpace=wrap;html=1;" vertex="1" parent="WIyWlLk6GJQsqaUBKTNV-1">
          <mxGeometry x="-90" y="395" width="170" height="40" as="geometry" />
        </mxCell>
        <mxCell id="AT910s7sBj3iHrCnCsIg-31" value="Yes" style="edgeStyle=orthogonalEdgeStyle;rounded=0;orthogonalLoop=1;jettySize=auto;html=1;exitX=0.5;exitY=1;exitDx=0;exitDy=0;entryX=0.5;entryY=0;entryDx=0;entryDy=0;labelPosition=right;verticalLabelPosition=middle;align=left;verticalAlign=middle;spacingLeft=5;spacingBottom=5;" edge="1" parent="WIyWlLk6GJQsqaUBKTNV-1" source="AT910s7sBj3iHrCnCsIg-20" target="AT910s7sBj3iHrCnCsIg-28">
          <mxGeometry relative="1" as="geometry" />
        </mxCell>
        <mxCell id="AT910s7sBj3iHrCnCsIg-49" value="No" style="edgeStyle=orthogonalEdgeStyle;rounded=0;orthogonalLoop=1;jettySize=auto;html=1;exitX=1;exitY=0.5;exitDx=0;exitDy=0;entryX=1;entryY=0.5;entryDx=0;entryDy=0;labelPosition=right;verticalLabelPosition=middle;align=left;verticalAlign=middle;spacingLeft=5;" edge="1" parent="WIyWlLk6GJQsqaUBKTNV-1" source="AT910s7sBj3iHrCnCsIg-20" target="AT910s7sBj3iHrCnCsIg-8">
          <mxGeometry relative="1" as="geometry">
            <Array as="points">
              <mxPoint x="360" y="500" />
              <mxPoint x="360" y="415" />
            </Array>
          </mxGeometry>
        </mxCell>
        <mxCell id="AT910s7sBj3iHrCnCsIg-20" value="P in ScienceDirect?" style="rhombus;whiteSpace=wrap;html=1;rounded=0;" vertex="1" parent="WIyWlLk6GJQsqaUBKTNV-1">
          <mxGeometry x="130" y="460" width="180" height="80" as="geometry" />
        </mxCell>
        <mxCell id="AT910s7sBj3iHrCnCsIg-48" value="No" style="edgeStyle=orthogonalEdgeStyle;rounded=0;orthogonalLoop=1;jettySize=auto;html=1;exitX=1;exitY=0.5;exitDx=0;exitDy=0;entryX=1;entryY=0.5;entryDx=0;entryDy=0;labelPosition=right;verticalLabelPosition=middle;align=left;verticalAlign=middle;spacingLeft=5;" edge="1" parent="WIyWlLk6GJQsqaUBKTNV-1" source="AT910s7sBj3iHrCnCsIg-28" target="AT910s7sBj3iHrCnCsIg-8">
          <mxGeometry relative="1" as="geometry">
            <Array as="points">
              <mxPoint x="420" y="610" />
              <mxPoint x="420" y="415" />
            </Array>
          </mxGeometry>
        </mxCell>
        <mxCell id="AT910s7sBj3iHrCnCsIg-60" value="No" style="edgeStyle=orthogonalEdgeStyle;rounded=0;orthogonalLoop=1;jettySize=auto;html=1;exitX=0;exitY=0.5;exitDx=0;exitDy=0;entryX=0.5;entryY=1;entryDx=0;entryDy=0;labelPosition=right;verticalLabelPosition=middle;align=left;verticalAlign=middle;spacingLeft=5;" edge="1" parent="WIyWlLk6GJQsqaUBKTNV-1" source="AT910s7sBj3iHrCnCsIg-28" target="AT910s7sBj3iHrCnCsIg-10">
          <mxGeometry x="-0.7419" y="-10" relative="1" as="geometry">
            <mxPoint as="offset" />
          </mxGeometry>
        </mxCell>
        <mxCell id="AT910s7sBj3iHrCnCsIg-28" value="LLM finds chemical name for M in P?" style="rhombus;whiteSpace=wrap;html=1;spacingTop=4;spacingLeft=25;spacingRight=25;" vertex="1" parent="WIyWlLk6GJQsqaUBKTNV-1">
          <mxGeometry x="130" y="570" width="180" height="80" as="geometry" />
        </mxCell>
        <mxCell id="AT910s7sBj3iHrCnCsIg-29" style="edgeStyle=orthogonalEdgeStyle;rounded=0;orthogonalLoop=1;jettySize=auto;html=1;exitX=0.5;exitY=1;exitDx=0;exitDy=0;" edge="1" parent="WIyWlLk6GJQsqaUBKTNV-1" source="AT910s7sBj3iHrCnCsIg-28" target="AT910s7sBj3iHrCnCsIg-28">
          <mxGeometry relative="1" as="geometry" />
        </mxCell>
        <mxCell id="AT910s7sBj3iHrCnCsIg-40" value="No" style="edgeStyle=orthogonalEdgeStyle;rounded=0;orthogonalLoop=1;jettySize=auto;html=1;exitX=0.5;exitY=1;exitDx=0;exitDy=0;entryX=0.5;entryY=0;entryDx=0;entryDy=0;labelPosition=right;verticalLabelPosition=middle;align=left;verticalAlign=middle;spacingLeft=5;spacingBottom=4;" edge="1" parent="WIyWlLk6GJQsqaUBKTNV-1" source="AT910s7sBj3iHrCnCsIg-38" target="AT910s7sBj3iHrCnCsIg-8">
          <mxGeometry relative="1" as="geometry" />
        </mxCell>
        <mxCell id="AT910s7sBj3iHrCnCsIg-38" value="Is P the last paper in Paper_list?" style="rhombus;whiteSpace=wrap;html=1;shadow=0;fontFamily=Helvetica;fontSize=12;align=center;strokeWidth=1;spacing=6;spacingTop=12;spacingLeft=23;spacingBottom=10;spacingRight=20;" vertex="1" parent="WIyWlLk6GJQsqaUBKTNV-1">
          <mxGeometry x="130" y="280" width="180" height="80" as="geometry" />
        </mxCell>
        <mxCell id="AT910s7sBj3iHrCnCsIg-41" value="Yes" style="edgeStyle=orthogonalEdgeStyle;rounded=0;html=1;jettySize=auto;orthogonalLoop=1;fontSize=11;endArrow=block;endFill=0;endSize=8;strokeWidth=1;shadow=0;labelBackgroundColor=none;exitX=1;exitY=0.5;exitDx=0;exitDy=0;entryX=0.5;entryY=1;entryDx=0;entryDy=0;" edge="1" parent="WIyWlLk6GJQsqaUBKTNV-1" target="AT910s7sBj3iHrCnCsIg-46" source="AT910s7sBj3iHrCnCsIg-38">
          <mxGeometry y="10" relative="1" as="geometry">
            <mxPoint as="offset" />
            <mxPoint x="330" y="360" as="sourcePoint" />
            <mxPoint x="390" y="340" as="targetPoint" />
          </mxGeometry>
        </mxCell>
        <mxCell id="AT910s7sBj3iHrCnCsIg-47" style="edgeStyle=orthogonalEdgeStyle;rounded=0;orthogonalLoop=1;jettySize=auto;html=1;exitX=0.5;exitY=0;exitDx=0;exitDy=0;entryX=1;entryY=0.5;entryDx=0;entryDy=0;" edge="1" parent="WIyWlLk6GJQsqaUBKTNV-1" source="AT910s7sBj3iHrCnCsIg-46" target="WIyWlLk6GJQsqaUBKTNV-3">
          <mxGeometry relative="1" as="geometry" />
        </mxCell>
        <mxCell id="AT910s7sBj3iHrCnCsIg-46" value="&lt;p style=&quot;text-align: left; line-height: 0%;&quot;&gt;Add entry to dictionary.&lt;/p&gt;&lt;p style=&quot;text-align: left; line-height: 0%;&quot;&gt;&lt;b&gt;Key&lt;/b&gt;: M&lt;/p&gt;&lt;p style=&quot;text-align: left; line-height: 0%;&quot;&gt;&lt;b&gt;Value&lt;/b&gt;: None&lt;/p&gt;&lt;p&gt;&lt;/p&gt;" style="rounded=0;whiteSpace=wrap;html=1;fontSize=12;glass=0;strokeWidth=1;shadow=0;align=center;" vertex="1" parent="WIyWlLk6GJQsqaUBKTNV-1">
          <mxGeometry x="520" y="92.5" width="150" height="60" as="geometry" />
        </mxCell>
        <mxCell id="AT910s7sBj3iHrCnCsIg-58" value="Yes" style="edgeStyle=orthogonalEdgeStyle;rounded=0;orthogonalLoop=1;jettySize=auto;html=1;exitX=1;exitY=0.5;exitDx=0;exitDy=0;entryX=0;entryY=0.5;entryDx=0;entryDy=0;labelPosition=center;verticalLabelPosition=top;align=center;verticalAlign=bottom;" edge="1" parent="WIyWlLk6GJQsqaUBKTNV-1" source="AT910s7sBj3iHrCnCsIg-52" target="AT910s7sBj3iHrCnCsIg-57">
          <mxGeometry relative="1" as="geometry" />
        </mxCell>
        <mxCell id="AT910s7sBj3iHrCnCsIg-59" value="No" style="edgeStyle=orthogonalEdgeStyle;rounded=0;orthogonalLoop=1;jettySize=auto;html=1;exitX=0.5;exitY=1;exitDx=0;exitDy=0;entryX=0.5;entryY=0;entryDx=0;entryDy=0;labelPosition=right;verticalLabelPosition=middle;align=left;verticalAlign=middle;spacingLeft=5;spacingBottom=4;" edge="1" parent="WIyWlLk6GJQsqaUBKTNV-1" source="AT910s7sBj3iHrCnCsIg-52" target="WIyWlLk6GJQsqaUBKTNV-3">
          <mxGeometry relative="1" as="geometry" />
        </mxCell>
        <mxCell id="AT910s7sBj3iHrCnCsIg-52" value="Is M the last material in Material_list?" style="rhombus;whiteSpace=wrap;html=1;spacingLeft=20;spacingRight=20;spacingTop=5;" vertex="1" parent="WIyWlLk6GJQsqaUBKTNV-1">
          <mxGeometry x="130" y="-60" width="180" height="80" as="geometry" />
        </mxCell>
        <mxCell id="AT910s7sBj3iHrCnCsIg-56" style="edgeStyle=orthogonalEdgeStyle;rounded=0;orthogonalLoop=1;jettySize=auto;html=1;exitX=0.5;exitY=1;exitDx=0;exitDy=0;entryX=0.5;entryY=0;entryDx=0;entryDy=0;" edge="1" parent="WIyWlLk6GJQsqaUBKTNV-1" source="AT910s7sBj3iHrCnCsIg-53" target="AT910s7sBj3iHrCnCsIg-52">
          <mxGeometry relative="1" as="geometry" />
        </mxCell>
        <mxCell id="AT910s7sBj3iHrCnCsIg-53" value="Material_list = list of all CTL materials" style="rounded=0;whiteSpace=wrap;html=1;" vertex="1" parent="WIyWlLk6GJQsqaUBKTNV-1">
          <mxGeometry x="140" y="-120" width="160" height="45" as="geometry" />
        </mxCell>
        <mxCell id="AT910s7sBj3iHrCnCsIg-54" style="edgeStyle=orthogonalEdgeStyle;rounded=0;orthogonalLoop=1;jettySize=auto;html=1;exitX=0.5;exitY=1;exitDx=0;exitDy=0;" edge="1" parent="WIyWlLk6GJQsqaUBKTNV-1" source="AT910s7sBj3iHrCnCsIg-53" target="AT910s7sBj3iHrCnCsIg-53">
          <mxGeometry relative="1" as="geometry" />
        </mxCell>
        <mxCell id="AT910s7sBj3iHrCnCsIg-57" value="END" style="ellipse;whiteSpace=wrap;html=1;" vertex="1" parent="WIyWlLk6GJQsqaUBKTNV-1">
          <mxGeometry x="380" y="-40" width="120" height="40" as="geometry" />
        </mxCell>
      </root>
    </mxGraphModel>
  </diagram>
</mxfile>
